# xmcd
#
# Track frame offsets:
#	150
#	11179
#	31345
#	50743
#	71317
#	93172
#	115454
#	136240
#	160758
#	181755
#	204037
#	225207
#	247695
#	266907
#	286974
#	305534
#
# Disc length: 4280 seconds
#
# Revision: 1
# Processed by: cddbd v1.4PL0 Copyright (c) Steve Scherf et al.
# Submitted via: audiograbber 1.80
#
DISCID=cb10b610
DTITLE=Juvenile - Project English
DYEAR=1900
DGENRE=
TTITLE0=Intro - let's roll
TTITLE1=set it off
TTITLE2=H. B. HeadBusta
TTITLE3=4 Minutes feat. The hot boys
TTITLE4=My life feat. TQ
TTITLE5=get your hustle on feat. the big tymers
TTITLE6=Sunshine
TTITLE7=Be gone feat. the big Tymers
TTITLE8=Mamma got ass
TTITLE9=They lied feat. the big Tymers
TTITLE10=white girl feat. lil Wayne, Baby and Turk
TTITLE11=In ya ass
TTITLE12=Set it off (Remix Radio) feat. lil Wayne and Baby
TTITLE13=in the nolia
TTITLE14=What U scared 4 feat. lil Wayne
TTITLE15=Outro -  Let's go
EXTD=
EXTT0=
EXTT1=
EXTT2=
EXTT3=
EXTT4=
EXTT5=
EXTT6=
EXTT7=
EXTT8=
EXTT9=
EXTT10=
EXTT11=\n
EXTT12=
EXTT13=
EXTT14=
EXTT15=
PLAYORDER=
